<?xml version="1.0" encoding="UTF-8"?>
<svg xmlns="http://www.w3.org/2000/svg" version="1.1" width="300" height="300" viewBox="0 0 300 300"><rect x="0" y="0" width="300" height="300" fill="#fefefe"/><g transform="scale(8.108)"><g transform="translate(4,4)"><path fill-rule="evenodd" d="M9 0L9 1L8 1L8 2L9 2L9 3L8 3L8 4L10 4L10 7L11 7L11 4L12 4L12 5L13 5L13 6L12 6L12 9L14 9L14 10L11 10L11 11L10 11L10 9L11 9L11 8L6 8L6 9L5 9L5 8L0 8L0 10L3 10L3 9L5 9L5 11L4 11L4 12L3 12L3 11L0 11L0 13L2 13L2 14L1 14L1 15L2 15L2 14L3 14L3 16L2 16L2 17L3 17L3 18L2 18L2 20L3 20L3 21L4 21L4 20L3 20L3 18L4 18L4 17L5 17L5 20L6 20L6 21L8 21L8 23L10 23L10 25L9 25L9 24L8 24L8 29L9 29L9 28L11 28L11 29L12 29L12 27L13 27L13 26L11 26L11 22L10 22L10 21L12 21L12 22L13 22L13 23L12 23L12 25L13 25L13 24L14 24L14 25L15 25L15 26L17 26L17 28L15 28L15 27L14 27L14 28L15 28L15 29L17 29L17 28L18 28L18 29L19 29L19 28L21 28L21 27L20 27L20 26L21 26L21 25L22 25L22 27L24 27L24 26L25 26L25 25L29 25L29 23L27 23L27 22L28 22L28 20L29 20L29 19L27 19L27 18L25 18L25 19L21 19L21 18L22 18L22 17L23 17L23 18L24 18L24 16L25 16L25 15L27 15L27 16L29 16L29 14L28 14L28 13L27 13L27 14L26 14L26 13L24 13L24 12L26 12L26 11L27 11L27 10L28 10L28 8L27 8L27 10L26 10L26 8L25 8L25 9L24 9L24 8L23 8L23 9L24 9L24 10L25 10L25 11L21 11L21 10L20 10L20 11L18 11L18 10L19 10L19 9L18 9L18 8L17 8L17 6L18 6L18 7L19 7L19 8L20 8L20 7L21 7L21 5L20 5L20 7L19 7L19 6L18 6L18 5L17 5L17 6L16 6L16 8L14 8L14 7L15 7L15 6L14 6L14 5L13 5L13 4L18 4L18 3L20 3L20 2L21 2L21 1L20 1L20 2L19 2L19 0L18 0L18 1L17 1L17 2L16 2L16 3L14 3L14 2L15 2L15 1L16 1L16 0L14 0L14 1L11 1L11 2L10 2L10 0ZM12 2L12 4L13 4L13 2ZM10 3L10 4L11 4L11 3ZM8 5L8 7L9 7L9 5ZM13 6L13 7L14 7L14 6ZM21 8L21 9L22 9L22 8ZM6 9L6 10L8 10L8 9ZM15 9L15 10L14 10L14 11L12 11L12 13L11 13L11 12L10 12L10 13L9 13L9 14L8 14L8 12L7 12L7 11L6 11L6 12L7 12L7 13L6 13L6 14L5 14L5 17L6 17L6 18L7 18L7 17L6 17L6 16L7 16L7 15L6 15L6 14L8 14L8 17L9 17L9 18L8 18L8 19L9 19L9 20L8 20L8 21L10 21L10 20L11 20L11 19L9 19L9 18L10 18L10 17L11 17L11 18L13 18L13 19L12 19L12 21L14 21L14 22L16 22L16 23L14 23L14 24L16 24L16 23L17 23L17 24L18 24L18 25L17 25L17 26L18 26L18 28L19 28L19 26L18 26L18 25L20 25L20 24L18 24L18 23L20 23L20 20L21 20L21 19L20 19L20 20L19 20L19 21L18 21L18 20L17 20L17 21L15 21L15 20L16 20L16 19L17 19L17 18L18 18L18 19L19 19L19 18L18 18L18 17L17 17L17 16L19 16L19 17L20 17L20 18L21 18L21 15L25 15L25 14L24 14L24 13L22 13L22 12L21 12L21 11L20 11L20 12L18 12L18 11L17 11L17 10L18 10L18 9ZM15 10L15 11L14 11L14 12L13 12L13 13L12 13L12 14L13 14L13 15L12 15L12 17L13 17L13 15L14 15L14 16L15 16L15 17L14 17L14 18L16 18L16 16L17 16L17 15L18 15L18 14L17 14L17 11L16 11L16 10ZM15 11L15 12L14 12L14 13L13 13L13 14L14 14L14 15L15 15L15 16L16 16L16 15L17 15L17 14L16 14L16 15L15 15L15 14L14 14L14 13L15 13L15 12L16 12L16 11ZM28 11L28 12L29 12L29 11ZM2 12L2 13L3 13L3 14L4 14L4 13L5 13L5 12L4 12L4 13L3 13L3 12ZM10 13L10 14L9 14L9 15L10 15L10 16L9 16L9 17L10 17L10 16L11 16L11 15L10 15L10 14L11 14L11 13ZM21 13L21 14L19 14L19 16L20 16L20 15L21 15L21 14L22 14L22 13ZM0 16L0 21L1 21L1 16ZM3 16L3 17L4 17L4 16ZM28 17L28 18L29 18L29 17ZM6 19L6 20L7 20L7 19ZM25 19L25 23L26 23L26 22L27 22L27 21L26 21L26 19ZM21 21L21 24L24 24L24 21ZM17 22L17 23L18 23L18 22ZM22 22L22 23L23 23L23 22ZM23 25L23 26L24 26L24 25ZM10 26L10 27L11 27L11 26ZM26 26L26 27L25 27L25 28L22 28L22 29L27 29L27 27L28 27L28 28L29 28L29 27L28 27L28 26ZM0 0L0 7L7 7L7 0ZM1 1L1 6L6 6L6 1ZM2 2L2 5L5 5L5 2ZM22 0L22 7L29 7L29 0ZM23 1L23 6L28 6L28 1ZM24 2L24 5L27 5L27 2ZM0 22L0 29L7 29L7 22ZM1 23L1 28L6 28L6 23ZM2 24L2 27L5 27L5 24Z" fill="#000000"/></g></g></svg>
